<?xml version="1.0" encoding="UTF-8" standalone="no"?>
<svg xmlns="http://www.w3.org/2000/svg" xml:space="preserve" width="128pt" height="128pt" version="1.0" viewBox="0 0 507.946 507.946">
  <defs>
    <radialGradient id="a" cx="218.9404" cy="219.7715" r="150.7063" fx="218.9404" fy="219.7715" gradientUnits="userSpaceOnUse">
      <stop offset="0" stop-color="#73ffff"/>
      <stop offset=".2809" stop-color="#2ea6b9"/>
      <stop offset="1" stop-color="#006b8b"/>
    </radialGradient>
  </defs>
  <path fill="#a4c9ee" fill-opacity=".7" d="M23.92133827 256.46367136c0 127.62899404 102.90068278 231.4720544 229.38221929 231.4720544 126.47774629 0 229.38221929-103.84306036 229.38221929-231.4720544 0-127.63281876-102.904473-231.47014204-229.38221929-231.47014204-126.48153651 0-229.38221929 103.83732328-229.38221929 231.47014204z" font-size="12"/>
  <path fill="url(#a)" fill-rule="evenodd" stroke="#1c6671" stroke-opacity=".98823499" stroke-width="7.73106003" d="M356.643 263.366c0 57.027-46.23 103.257-103.256 103.257-57.027 0-103.256-46.229-103.256-103.257 0-57.027 46.229-103.256 103.256-103.256 57.025 0 103.256 46.229 103.256 103.256z" font-size="12" transform="translate(-264.353 -281.723) scale(2.04451)"/>
  <path fill="#fff" fill-opacity=".98999999" stroke="#1c6772" stroke-opacity=".98823499" stroke-width="4.64909697" d="M425.66047 234.33393s-25.24448.1071-37.28705.15822c-.04673-10.2915-.12331-27.40492-.12331-27.40492-.01109-2.47847-1.05361-4.78935-2.80285-6.46761-.86655-.83139-1.90577-1.50723-3.07926-1.97133-3.54328-1.40255-7.61086-.60295-10.30672 2.02873l-51.2267 50.00703c-3.6809 3.59326-3.65494 9.3936.05798 12.95587l51.67502 49.57834c2.71931 2.60898 6.79458 3.3751 10.32517 1.9429 3.53125-1.43285 5.82226-4.78449 5.80502-8.48922 0 0-.0786-17.11406-.12466-27.40621 12.04325-.05047 37.28774-.15499 37.28774-.15499 2.51079-.00987 4.91485-.98518 6.68233-2.71057 1.76747-1.72539 2.75373-4.05968 2.74352-6.48956l-.11839-26.4559c-.01154-2.42988-1.01866-4.75581-2.8015-6.46632-1.78285-1.71051-4.19555-2.66563-6.70634-2.65446zM280.49129 423.06176s-.1071-25.24448-.15822-37.28705c10.2915-.04673 27.40492-.12331 27.40492-.12331 2.47847-.01109 4.78935-1.05361 6.46761-2.80285.83139-.86655 1.50723-1.90577 1.97133-3.07926 1.40255-3.54328.60295-7.61086-2.02873-10.30672l-50.00703-51.2267c-3.59326-3.6809-9.3936-3.65494-12.95587.05798l-49.57834 51.67502c-2.60898 2.71931-3.3751 6.79458-1.9429 10.32517 1.43285 3.53125 4.78449 5.82226 8.48922 5.80502 0 0 17.11406-.0786 27.40621-.12466.05047 12.04325.15499 37.28774.15499 37.28774.00987 2.51079.98518 4.91485 2.71057 6.68233 1.72539 1.76747 4.05968 2.75373 6.48956 2.74352l26.4559-.11839c2.42988-.01154 4.75581-1.01866 6.46632-2.8015 1.71051-1.78285 2.66563-4.19555 2.65446-6.70634zM231.16592 81.993023s.1071 25.244477.15822 37.287047c-10.2915.04673-27.40492.12331-27.40492.12331-2.47847.01109-4.78935 1.05361-6.46761 2.80285-.83139.86655-1.50723 1.90577-1.97133 3.07926-1.40255 3.54328-.60295 7.61086 2.02873 10.30672l50.00703 51.2267c3.59326 3.6809 9.3936 3.65494 12.95587-.05798l49.57834-51.67502c2.60898-2.71931 3.3751-6.79458 1.9429-10.32517-1.43285-3.53125-4.78449-5.82226-8.48922-5.80502 0 0-17.11406.0786-27.40621.12466-.05047-12.04325-.15499-37.287737-.15499-37.287737-.00987-2.51079-.98518-4.91485-2.71057-6.68233-1.72539-1.76747-4.05968-2.75373-6.48956-2.74352l-26.4559.11839c-2.42988.01154-4.75581 1.01866-6.46632 2.8015-1.71051 1.78285-2.66563 4.19555-2.65446 6.70634zM84.506647 235.63232s25.244483.1071 37.287053.15822c.04673-10.2915.12331-27.40492.12331-27.40492.01109-2.47847 1.05361-4.78935 2.80285-6.46761.86655-.83139 1.90577-1.50723 3.07926-1.97133 3.54328-1.40255 7.61086-.60295 10.30672 2.02873l51.22669 50.00703c3.6809 3.59326 3.65494 9.3936-.05798 12.95587l-51.67501 49.57834c-2.71931 2.60898-6.79458 3.3751-10.32517 1.9429-3.53125-1.43285-5.82226-4.78449-5.80502-8.48922 0 0 .0786-17.11406.12466-27.40621-12.04325-.05047-37.287743-.15499-37.287743-.15499-2.51079-.00987-4.91485-.98518-6.68233-2.71057-1.76747-1.72539-2.75373-4.05968-2.74352-6.48956l.11839-26.4559c.01154-2.42988 1.01866-4.75581 2.8015-6.46632 1.78285-1.71051 4.19555-2.66563 6.70634-2.65446z" font-size="12"/>
</svg>